<svg width="32" height="32" viewBox="0 0 32 32" fill="none" xmlns="http://www.w3.org/2000/svg">
<g clip-path="url(#clip0_2032_7154)">
<circle cx="16" cy="16" r="16" fill="url(#paint0_linear_2032_7154)"/>
<path d="M19.1543 6.37798L18.633 8.812C18.357 8.79172 18.081 8.78158 17.8051 8.79172C17.2633 8.812 16.7216 8.89313 16.2105 9.03512C16.047 9.08583 15.8834 9.13654 15.7301 9.18724L14.6875 9.52192L15.5257 5.60721C15.6381 5.08998 15.955 4.67417 16.3741 4.42063C16.7011 4.22793 17.0896 4.12652 17.4882 4.15694C17.57 4.16708 17.6415 4.17722 17.7233 4.18737C18.725 4.41048 19.369 5.38409 19.1543 6.37798Z" fill="white"/>
<path d="M20.7804 25.6678L17.622 27.5947L15.455 23.6496L15.2608 23.3352L13.2676 20.1101C13.9831 20.8302 14.8621 21.3981 15.8741 21.7328C16.1296 21.8139 16.3851 21.8849 16.6509 21.9458C17.3869 22.0979 18.1126 22.1283 18.8179 22.0472L18.8894 22.1587L20.7804 25.6678Z" fill="white"/>
<path d="M18.6033 17.1789L16.7021 17.7874L16.3546 17.8989L12.6339 19.0957L12.4704 19.1464L11.3869 19.5013L10.4363 19.8056C10.1297 19.907 9.79236 19.9273 9.4755 19.8563L9.42439 19.8461C8.42268 19.6332 7.78894 18.6596 7.99337 17.6657L8.20802 16.6616L11.3358 15.6576L12.2762 15.3534L13.5232 14.9477L15.2302 14.4L17.6016 13.6394C18.5318 13.4163 19.4926 13.9436 19.7992 14.8564C20.1161 15.83 19.5744 16.8645 18.6033 17.1789Z" fill="white"/>
<path d="M14.4334 5.31325L14.3823 5.57694L12.2869 15.3637L11.3465 15.668L8.21875 16.672L10.2631 7.12863L10.8048 4.61347C10.8355 4.47149 10.8866 4.33965 10.9377 4.2078C11.7758 3.85284 12.6549 3.58916 13.5544 3.41675C13.7997 3.55873 14.0041 3.76157 14.1575 3.99483C14.4028 4.37007 14.5152 4.83659 14.4334 5.31325Z" fill="white"/>
<path d="M24.595 16.8242C24.3088 18.1528 23.6444 19.2988 22.7449 20.1811C22.4485 20.4651 22.1316 20.7186 21.7943 20.9519C21.273 21.3069 20.7006 21.5807 20.0975 21.7734C19.6887 21.9052 19.2594 21.9965 18.8198 22.0472C18.1145 22.1283 17.3786 22.0979 16.6529 21.9458C16.3871 21.8849 16.1213 21.814 15.876 21.7328C14.8641 21.388 13.985 20.8302 13.2695 20.1101L13.2798 20.1L16.4484 19.0757L16.8982 18.9337L18.922 18.2846C18.9323 18.2846 18.9425 18.2745 18.9527 18.2745C18.9834 18.2643 19.0038 18.2542 19.0345 18.2441C19.0345 18.2441 19.0447 18.2441 19.0447 18.2339C19.6478 18.0209 20.1691 17.6153 20.537 17.0879C20.6699 16.8952 20.7721 16.6822 20.8539 16.4591C20.905 16.3273 20.9459 16.1954 20.9663 16.0534C21.0686 15.5666 21.0481 15.0798 20.9152 14.6336C20.8948 14.5626 20.8744 14.4815 20.8437 14.4105C20.629 13.8223 20.2304 13.3152 19.6989 12.9704C19.5047 12.8385 19.3002 12.7371 19.0754 12.656C18.9425 12.6052 18.7994 12.5647 18.6563 12.5343C18.3803 12.4734 18.1145 12.4531 17.8488 12.4734C17.6341 12.4835 17.4195 12.5241 17.2048 12.585C17.2048 12.585 17.1946 12.585 17.1844 12.585L17.0515 12.6255H17.0413L13.8011 13.6701L14.6903 9.51202L15.7329 9.17734L16.2133 9.02521C16.7244 8.88323 17.2559 8.80209 17.8079 8.78181C18.0839 8.77167 18.3496 8.78181 18.6358 8.80209C18.7687 8.81224 18.9016 8.83252 19.0345 8.8528C19.1674 8.87309 19.3002 8.89337 19.4331 8.92379C20.7721 9.20776 21.9272 9.86698 22.8164 10.7696C23.1026 11.0637 23.3582 11.3781 23.5933 11.7128C23.8999 12.159 24.1452 12.6357 24.3292 13.1428L24.4928 13.6296C24.6359 14.1367 24.7176 14.664 24.7381 15.2015C24.7483 15.6072 24.7279 16.0129 24.6665 16.4185C24.6461 16.5605 24.6257 16.6924 24.595 16.8242Z" fill="white"/>
<path d="M25.1965 6.95632C22.7433 4.5223 19.4929 3.18359 16.0278 3.18359C15.1896 3.18359 14.3617 3.26473 13.5542 3.41685C12.6547 3.58926 11.7756 3.85295 10.9374 4.20791C9.43487 4.84684 8.05497 5.76974 6.85905 6.94618C4.40588 9.3802 3.05664 12.6053 3.05664 16.0433C3.05664 19.4814 4.40588 22.7166 6.85905 25.1405C9.31222 27.5745 12.5627 28.9132 16.0278 28.9132C19.4929 28.9132 22.7535 27.5745 25.1965 25.1405C27.6496 22.7064 28.9989 19.4814 28.9989 16.0433C28.9887 12.6154 27.6394 9.3802 25.1965 6.95632ZM16.0278 26.6617C10.1299 26.6617 5.33604 21.9053 5.33604 16.0535C5.33604 12.3112 7.29857 9.0151 10.2526 7.12873C11.4792 6.34782 12.8693 5.81031 14.3719 5.57704C14.9136 5.49591 15.4656 5.45534 16.0175 5.45534C21.9154 5.45534 26.7093 10.2118 26.7093 16.0636C26.7093 21.9154 21.9154 26.6617 16.0278 26.6617Z" fill="white"/>
</g>
<defs>
<linearGradient id="paint0_linear_2032_7154" x1="10.7907" y1="-3.39909e-07" x2="23.1938" y2="35.907" gradientUnits="userSpaceOnUse">
<stop stop-color="#6100C1"/>
<stop offset="1" stop-color="#9300C9"/>
</linearGradient>
<clipPath id="clip0_2032_7154">
<rect width="32" height="32" fill="white"/>
</clipPath>
</defs>
</svg>
