<svg width="32" height="32" viewBox="0 0 32 32" fill="none" xmlns="http://www.w3.org/2000/svg">
<g clip-path="url(#clip0_2032_7114)">
<path d="M19.8769 4.1412L19.235 7.13816C18.8952 7.11319 18.5554 7.1007 18.2156 7.11319C17.5485 7.13816 16.8815 7.23806 16.2522 7.41288C16.0508 7.47532 15.8495 7.53776 15.6607 7.60019L14.377 8.01228L15.409 3.19216C15.5474 2.5553 15.9376 2.04332 16.4536 1.73114C16.8563 1.49388 17.3346 1.369 17.8254 1.40647C17.9261 1.41895 18.0142 1.43144 18.1149 1.44393C19.3483 1.71865 20.1412 2.91744 19.8769 4.1412Z" fill="white"/>
<path d="M21.8793 27.8924L17.9904 30.265L15.3222 25.4074L15.0831 25.0203L12.6289 21.0493C13.5099 21.9359 14.5923 22.6352 15.8382 23.0473C16.1529 23.1472 16.4675 23.2346 16.7947 23.3095C17.7009 23.4968 18.5945 23.5343 19.4629 23.4344L19.551 23.5718L21.8793 27.8924Z" fill="white"/>
<path d="M19.1989 17.4402L16.858 18.1894L16.4301 18.3268L11.8489 19.8003L11.6475 19.8627L10.3135 20.2998L9.143 20.6744C8.76543 20.7993 8.35011 20.8243 7.95996 20.7369L7.89703 20.7244C6.66364 20.4621 5.88333 19.2633 6.13504 18.0396L6.39934 16.8033L10.2505 15.5671L11.4084 15.1925L12.9439 14.693L15.0456 14.0187L17.9655 13.0821C19.1108 12.8074 20.2938 13.4567 20.6714 14.5806C21.0616 15.7794 20.3945 17.0531 19.1989 17.4402Z" fill="white"/>
<path d="M14.0661 2.83025L14.0032 3.15492L11.4231 15.2052L10.2653 15.5798L6.41406 16.8161L8.93118 5.06549L9.59822 1.96863C9.63598 1.7938 9.6989 1.63147 9.76183 1.46913C10.7939 1.03207 11.8762 0.707402 12.9837 0.495117C13.2858 0.66994 13.5375 0.919688 13.7263 1.2069C14.0283 1.66893 14.1668 2.24335 14.0661 2.83025Z" fill="white"/>
<path d="M26.5738 17.0036C26.2214 18.6394 25.4033 20.0505 24.2958 21.1369C23.9308 21.4865 23.5406 21.7987 23.1253 22.0859C22.4834 22.523 21.7786 22.8601 21.0361 23.0974C20.5327 23.2597 20.0041 23.3721 19.4629 23.4345C18.5945 23.5344 17.6883 23.497 16.7947 23.3097C16.4675 23.2348 16.1403 23.1473 15.8382 23.0474C14.5923 22.6229 13.5099 21.9361 12.6289 21.0495L12.6415 21.037L16.543 19.7758L17.0968 19.6009L19.5887 18.8017C19.6013 18.8017 19.6139 18.7893 19.6265 18.7893C19.6643 18.7768 19.6894 18.7643 19.7272 18.7518C19.7272 18.7518 19.7398 18.7518 19.7398 18.7393C20.4823 18.4771 21.1242 17.9776 21.5773 17.3282C21.7409 17.091 21.8667 16.8287 21.9674 16.554C22.0303 16.3917 22.0807 16.2293 22.1059 16.0545C22.2317 15.4551 22.2065 14.8557 22.0429 14.3063C22.0178 14.2189 21.9926 14.119 21.9548 14.0316C21.6905 13.3073 21.1997 12.6829 20.5452 12.2584C20.3061 12.096 20.0544 11.9712 19.7775 11.8713C19.6139 11.8088 19.4377 11.7589 19.2615 11.7214C18.9217 11.6465 18.5945 11.6215 18.2673 11.6465C18.003 11.659 17.7387 11.7089 17.4744 11.7838C17.4744 11.7838 17.4618 11.7838 17.4492 11.7838L17.2856 11.8338H17.273L13.2834 13.12L14.3783 8.00018L15.662 7.5881L16.2536 7.40079C16.8828 7.22596 17.5373 7.12607 18.2169 7.10109C18.5567 7.0886 18.8839 7.10109 19.2363 7.12606C19.4 7.13855 19.5636 7.16353 19.7272 7.1885C19.8908 7.21348 20.0544 7.23845 20.218 7.27591C21.8667 7.62556 23.2889 8.43724 24.3839 9.54861C24.7363 9.91075 25.0509 10.2979 25.3404 10.7099C25.7179 11.2594 26.02 11.8463 26.2465 12.4707L26.4479 13.07C26.6241 13.6944 26.7248 14.3438 26.7499 15.0056C26.7625 15.5051 26.7374 16.0046 26.6618 16.5041C26.6367 16.6789 26.6115 16.8412 26.5738 17.0036Z" fill="white"/>
<path d="M27.317 4.85355C24.2965 1.85658 20.2943 0.208252 16.0278 0.208252C14.9957 0.208252 13.9763 0.30815 12.982 0.495461C11.8745 0.707746 10.7922 1.03242 9.76014 1.46947C7.91005 2.25618 6.211 3.39253 4.73848 4.84106C1.71794 7.83803 0.0566406 11.809 0.0566406 16.0422C0.0566406 20.2754 1.71794 24.2589 4.73848 27.2434C7.75902 30.2403 11.7612 31.8887 16.0278 31.8887C20.2943 31.8887 24.3091 30.2403 27.317 27.2434C30.3376 24.2464 31.9989 20.2754 31.9989 16.0422C31.9863 11.8215 30.325 7.83803 27.317 4.85355ZM16.0278 29.1165C8.76587 29.1165 2.86323 23.2599 2.86323 16.0547C2.86323 11.4469 5.27966 7.38848 8.9169 5.06583C10.4272 4.10431 12.1388 3.44248 13.9889 3.15527C14.6559 3.05537 15.3356 3.00542 16.0152 3.00542C23.2771 3.00542 29.1797 8.86199 29.1797 16.0672C29.1797 23.2724 23.2771 29.1165 16.0278 29.1165Z" fill="white"/>
</g>
<defs>
<clipPath id="clip0_2032_7114">
<rect width="32" height="32" fill="white"/>
</clipPath>
</defs>
</svg>
